<svg xmlns="http://www.w3.org/2000/svg" viewBox="0 0 1080 1080" height="44.274" width="44.274"><defs><style>.a{fill:#1677ff;}.b,.d{opacity:0.7;}.c,.d{fill:#fff;}</style></defs><rect class="a" width="1080" height="1080" rx="540"/><g class="b"><polygon class="c" points="398.6 474.19 254.53 596.03 681.4 596.03 825.47 474.19 398.6 474.19"/></g><path class="d" d="M681.4,778.83V410.09a90,90,0,0,1,26.36-63.64L774.26,280c18.89-18.9,51.21-5.52,51.21,21.21V669.91a90,90,0,0,1-26.36,63.64L732.62,800C713.72,818.94,681.4,805.56,681.4,778.83Z"/><g class="b"><path class="c" d="M254.53,778.83V410.09a90,90,0,0,1,26.36-63.64L347.38,280c18.9-18.9,51.22-5.52,51.22,21.21V669.91a90,90,0,0,1-26.36,63.64L305.74,800C286.85,818.94,254.53,805.56,254.53,778.83Z"/></g></svg>