<svg xmlns="http://www.w3.org/2000/svg" viewBox="0 0 1080 1080" width="136" height="28"><defs><style>.a{opacity:0.7;}.b{fill:#1677ff;}</style></defs><g class="a"><polygon class="b" points="316.88 436.16 89.55 628.41 763.12 628.41 990.45 436.16 316.88 436.16"/></g><g class="a"><path class="b" d="M763.12,916.86V335a142,142,0,0,1,41.6-100.42L909.64,129.67c29.82-29.82,80.81-8.7,80.81,33.47V745a142,142,0,0,1-41.6,100.42L843.93,950.33C814.11,980.15,763.12,959,763.12,916.86Z"/></g><g class="a"><path class="b" d="M89.55,916.86V335a142,142,0,0,1,41.6-100.42L236.07,129.67c29.82-29.82,80.81-8.7,80.81,33.47V745a142,142,0,0,1-41.6,100.42L170.36,950.33C140.54,980.15,89.55,959,89.55,916.86Z"/></g></svg>